<svg xmlns="http://www.w3.org/2000/svg" height="114.8" width="275.29999" viewBox="0 0 275.29998 114.8" y="0px" x="0px" version="1.1">
    <defs id="defs37"/>
    <style id="style2" type="text/css">
        .st0{fill:none;}
        .st1{fill:#007985;}
        .st2{fill:#00A651;}
    </style>
    <switch transform="translate(-75,-155.4)" id="switch32">
        <g id="g30">
            <g id="g28">
                <path
                        id="path4"
                        d="m 170.5,175.4 v 0 c -0.1,0 -0.3,0 -0.4,0 0.1,0 0.2,0 0.4,0 z"
                        class="st0"/>
                <path
                        id="path6"
                        d="m 177.2,230.4 c -3.8,0 -6.9,3.1 -6.9,6.9 0,2.6 1.5,4.9 3.6,6 v 17.9 l -4.5,8.7 h 6.8 l 4.1,-8.7 v -17.9 c 2.2,-1.2 3.6,-3.4 3.6,-6 0.2,-3.8 -2.9,-6.9 -6.7,-6.9 z"
                        class="st1"/>
                <path
                        id="path8"
                        d="m 200.3,236.1 10,-10 c 0.8,0.4 1.7,0.6 2.7,0.6 3.5,0 6.4,-2.8 6.4,-6.4 0,-3.5 -2.8,-6.4 -6.4,-6.4 -3.5,0 -6.4,2.8 -6.4,6.4 0,1 0.2,1.9 0.6,2.7 l -10.5,10.5 -0.4,0.4 -0.4,0.4 v 1.8 25.6 l 5.7,8.2 h 3.7 0.8 l -5.9,-8.2 v -25.6 z"
                        class="st2"/>
                <path
                        id="path10"
                        d="m 192.1,231.8 v -0.6 -4.6 l 8.5,-8.5 1.1,-1.1 v -1.1 -6.2 h 17.8 0.6 0.6 l 0.3,-0.3 5.7,-5.7 c 0.8,0.4 1.7,0.6 2.7,0.6 3.5,0 6.4,-2.8 6.4,-6.4 0,-3.5 -2.8,-6.4 -6.4,-6.4 -3.5,0 -6.4,2.8 -6.4,6.4 0,1 0.2,1.9 0.6,2.7 l -4.8,4.8 h -14.5 l 7.4,-7.4 c 0.8,0.4 1.7,0.6 2.7,0.6 3.5,0 6.4,-2.8 6.4,-6.4 0,-3.5 -2.8,-6.4 -6.4,-6.4 -3.5,0 -6.4,2.8 -6.4,6.4 0,1 0.2,1.9 0.6,2.7 l -10.4,10.4 -1.1,1.1 v 2.2 6.6 l -5.3,5.3 v -9.2 -1.8 -11.5 l 12.1,-12.1 1.2,-1.2 -0.1,-1.8 -0.2,-4.5 c 2.6,-0.8 4.4,-3.2 4.4,-6 0,-3.5 -2.8,-6.4 -6.4,-6.4 -3.5,0 -6.4,2.8 -6.4,6.4 0,2.7 1.7,5 4,5.9 l 0.2,4.7 -12.9,12.9 -0.4,0.4 v 1.8 7.4 l -5.1,-5.1 V 187 l 4.7,-6.1 1.3,-1.6 v -1.8 -9.7 c 0.5,-0.1 0.9,-0.3 1.3,-0.5 2,-1.2 3.2,-3.3 3.2,-5.5 0,-1.1 -0.3,-2.2 -0.9,-3.2 -1.2,-2 -3.3,-3.2 -5.5,-3.2 -1.1,0 -2.2,0.3 -3.2,0.9 -2,1.2 -3.2,3.3 -3.2,5.5 0,1.1 0.3,2.2 0.9,3.2 0.7,1.3 1.9,2.1 3.1,2.7 v 10.2 l -4.7,6.1 -1.3,1.7 v 1.2 9.4 l -6,-6 v -10.9 c 2.5,-0.9 4.3,-3.2 4.3,-6 0,-3.5 -2.8,-6.4 -6.4,-6.4 -3.5,0 -6.4,2.8 -6.4,6.4 0,2.7 1.7,5.1 4.2,5.9 v 11 1.6 l 1.2,1.2 18.4,18.4 v 13.4 1.3 0.8 l -6,-6 v -3.9 -2.1 l -9.2,-9.2 c 0.4,-0.8 0.6,-1.7 0.6,-2.7 0,-3.5 -2.8,-6.4 -6.4,-6.4 -3.5,0 -6.4,2.8 -6.4,6.4 0,3.5 2.8,6.4 6.4,6.4 1,0 1.9,-0.2 2.7,-0.6 l 8,8 v 1.4 h -11.3 l -3.7,-3.7 -0.6,-0.6 h -1.5 -4.1 c -0.9,-2.5 -3.2,-4.2 -6,-4.2 -3.5,0 -6.4,2.8 -6.4,6.4 0,3.5 2.8,6.4 6.4,6.4 2.8,0 5.1,-1.8 6,-4.2 h 3.9 l 3.3,3.3 1,1 h 2.2 10.4 l 0.4,0.4 1.2,1.2 9,9 V 262 l 5.7,8.2 h 3.7 0.8 l -5.9,-8.2 v -30.2 z m -21.6,-56.4 c -0.2,0 -0.3,0 -0.4,0 0.1,0 0.2,0 0.4,0 z"
                        class="st2"/>
                <a
                        id="a3907">
                    <path
                            class="st1"
                            d="m 101.1,233 c -0.5,-0.4 -1.1,-0.6 -1.8,-0.6 -0.7,0 -1.3,0.2 -1.8,0.6 -0.5,0.4 -0.9,0.9 -1.3,1.5 L 75,269.9 h 7.4 l 16.8,-28.4 8.2,13.8 H 96 l -3.1,5.2 h 17.5 l 5.5,9.3 h 7.8 l -21.3,-35.4 c -0.3,-0.5 -0.8,-1 -1.3,-1.4 z"
                            id="path12"/>
                </a>
                <path
                        id="path14"
                        d="m 163.6,236.5 c -1.2,-1.1 -2.6,-2 -4.2,-2.6 -1.6,-0.6 -3.6,-0.9 -5.7,-0.9 h -26 v 37 h 6.4 v -30.5 h 19.6 c 2.3,0 4,0.6 5.3,1.9 1.3,1.3 1.9,2.9 1.9,5.1 0,2.1 -0.6,3.8 -1.9,5.1 -1.3,1.3 -3,1.9 -5.3,1.9 h -14.8 v 6.3 h 14.8 c 2.1,0 4,-0.3 5.7,-1 1.7,-0.7 3.1,-1.6 4.2,-2.8 1.2,-1.2 2,-2.6 2.6,-4.2 0.6,-1.6 0.9,-3.5 0.9,-5.5 0,-2 -0.3,-3.9 -0.9,-5.5 -0.5,-1.7 -1.4,-3.1 -2.6,-4.3 z"
                        class="st1"/>
                <polygon
                        id="polygon16"
                        points="220.6,269.9 226.5,269.9 226.5,239.4 239.2,239.4 239.2,233 207.9,233 207.9,239.4 220.6,239.4 "
                        class="st1"/>
                <path
                        id="path18"
                        d="m 277.4,254.2 c 1.2,-2.1 1.8,-4.7 1.8,-7.8 0,-2.1 -0.3,-3.9 -0.8,-5.6 -0.6,-1.7 -1.4,-3.1 -2.4,-4.2 -1,-1.2 -2.3,-2.1 -3.8,-2.7 -1.5,-0.6 -3.2,-0.9 -5.1,-0.9 h -24 v 37 h 5.8 v -30.5 h 18.2 c 2,0 3.6,0.6 4.7,1.8 1.1,1.2 1.7,3 1.7,5.4 0,2.4 -0.5,4.2 -1.6,5.5 -1.1,1.3 -2.7,1.9 -4.8,1.9 h -13.9 v 5.7 h 12.5 l 8.5,10.3 h 8.3 l -10.1,-11.2 c 2.1,-1.1 3.8,-2.6 5,-4.7 z"
                        class="st1"/>
                <polygon
                        id="polygon20"
                        points="315.3,233 285.4,233 285.4,269.9 315.3,269.9 315.3,263.5 291.2,263.5 291.2,239.4 315.3,239.4 "
                        class="st1"/>
                <rect
                        id="rect22"
                        height="5.4000001"
                        width="18.5"
                        class="st1"
                        y="248.39999"
                        x="295.5"/>
                <rect
                        id="rect24"
                        height="5.4000001"
                        width="18.5"
                        class="st1"
                        y="248.39999"
                        x="330.10001"/>
                <polygon
                        id="polygon26"
                        points="350.2,239.4 350.2,233 320.3,233 320.3,269.9 350.3,269.9 350.3,263.5 326.1,263.5 326.1,239.4 "
                        class="st1"/>
            </g>
        </g>
    </switch>
</svg>